<?xml version="1.0" encoding="UTF-8" standalone="no"?>
<!DOCTYPE svg PUBLIC "-//W3C//DTD SVG 20010904//EN" "http://www.w3.org/TR/2001/REC-SVG-20010904/DTD/svg10.dtd">
<svg version="1.0" xmlns="http://www.w3.org/2000/svg" width="1600.000000pt" height="1524.000000pt" viewBox="0 0 1600.000000 1524.000000" preserveAspectRatio="xMidYMid meet">
<metadata>
Created by potrace 1.12, written by Peter Selinger 2001-2015
</metadata>
<g transform="translate(0.000000,1524.000000) scale(0.100000,-0.100000)" fill="#000000" stroke="none">
<path d="M7130 14599 c-1195 -78 -2359 -470 -3373 -1135 -1315 -863 -2307 -2130 -2823 -3604 -242 -690 -372 -1384 -406 -2163 -32 -733 62 -1464 281 -2189 274 -907 771 -1812 1405 -2558 175 -207 440 -479 656 -676 239 -218 628 -517 883 -679 43 -28 119 -76 170 -109 124 -79 328 -192 522 -291 768 -390 1629 -643 2490 -729 593 -60 1263 -42 1820 50 1309 215 2481 774 3510 1675 162 142 464 442 616 614 914 1028 1544 2336 1753 3640 62 390 80 657 73 1085 -9 520 -58 952 -163 1445 -498 2332 -2091 4238 -4281 5121 -710 286 -1481 457 -2278 504 -196 11 -672 11 -855 -1z m915 -40 c99 -6 181 -11 182 -12 4 -5 -11 -257 -16 -264 -3 -5 -39 -6 -81 -2 -41 4 -200 11 -353 15 -153 4 -279 10 -281 13 -4 7 77 228 93 253 12 19 80 19 456 -3z m-642 -117 c31 -70 57 -130 57 -133 0 -3 -89 -9 -197 -12 -109 -4 -261 -13 -338 -21 -77 -8 -142 -13 -145 -10 -7 8 -40 246 -35 254 8 13 362 46 520 48 l80 2 58 -128z m1207 57 c292 -41 345 -52 344 -69 -1 -8 -12 -68 -25 -132 -17 -88 -27 -118 -38 -118 -8 0 -96 13 -195 29 -100 17 -226 35 -281 41 -157 17 -145 11 -140 78 3 31 7 92 11 135 l6 78 56 -6 c32 -4 149 -20 262 -36z m-1913 -64 c6 -44 12 -103 12 -131 l1 -51 -177 -28 c-98 -15 -236 -40 -306 -55 -90 -19 -130 -24 -133 -16 -8 23 -44 209 -44 230 0 21 10 25 128 49 70 14 195 37 277 51 83 14 161 27 175 29 52 9 54 6 67 -78z m2553 -56 c254 -61 390 -100 390 -113 0 -16 -62 -240 -69 -248 -3 -4 -69 10 -146 31 -77 21 -212 55 -300 76 -88 20 -162 38 -163 40 -2 2 9 63 24 135 l27 132 36 -7 c20 -3 110 -24 201 -46z m-3244 -123 c15 -70 25 -128 23 -130 -2 -1 -62 -18 -134 -36 -71 -18 -199 -55 -284 -82 -122 -40 -156 -47 -162 -36 -12 19 -65 168 -74 205 -6 30 -4 34 22 44 87 33 574 171 580 165 2 -2 15 -60 29 -130z m1869 4 c1702 -89 3236 -753 4424 -1915 699 -684 1232 -1494 1588 -2415 378 -976 539 -2114 438 -3090 -80 -766 -304 -1528 -660 -2240 -568 -1137 -1412 -2092 -2450 -2775 -282 -185 -665 -389 -990 -528 -1080 -459 -2227 -616 -3415 -466 -1289 162 -2519 698 -3511 1529 -949 795 -1646 1791 -2053 2935 -391 1100 -475 2301 -245 3485 239 1230 801 2348 1648 3282 1352 1490 3277 2300 5226 2198z m2026 -70 c96 -32 230 -81 299 -108 103 -41 124 -53 122 -68 -5 -28 -83 -207 -97 -222 -9 -10 -35 -4 -131 34 -65 25 -195 73 -289 106 -93 32 -171 61 -173 63 -2 1 11 52 28 112 18 59 35 116 37 126 3 9 11 17 18 17 7 0 91 -27 186 -60z m-4553 -112 c23 -62 43 -119 44 -126 2 -9 -40 -30 -122 -61 -69 -26 -186 -74 -260 -105 -151 -65 -180 -74 -180 -57 0 7 -22 61 -49 121 l-48 109 76 34 c64 29 188 79 446 180 22 9 42 16 45 16 3 1 24 -50 48 -111z m5144 -119 c51 -22 171 -79 266 -126 l174 -86 -6 -31 c-3 -17 -8 -62 -11 -101 -14 -168 -14 -169 -70 -139 -87 46 -391 196 -465 229 -47 21 -89 41 -94 46 -5 4 0 30 13 61 49 116 84 188 92 188 4 0 50 -18 101 -41z m-5763 -146 c28 -57 51 -108 51 -115 0 -7 -80 -53 -177 -102 -98 -49 -224 -115 -279 -147 -56 -32 -107 -59 -115 -61 -9 -2 -18 28 -30 107 -28 173 -29 168 39 206 130 75 446 229 453 222 4 -4 30 -54 58 -110z m6537 -259 c133 -81 258 -161 342 -221 l62 -44 -29 -42 c-15 -23 -47 -73 -71 -112 -23 -38 -44 -72 -46 -74 -2 -2 -75 43 -161 101 -87 57 -225 144 -306 193 -131 77 -147 89 -134 102 18 19 220 162 228 163 3 0 55 -30 115 -66z m-7279 -61 c46 -29 168 -115 180 -127 2 -2 -74 -52 -167 -112 -94 -60 -229 -151 -301 -202 -71 -51 -133 -91 -138 -88 -11 7 -129 179 -137 199 -7 19 66 75 311 239 104 71 191 128 192 128 2 0 29 -17 60 -37z m7851 -325 c142 -108 381 -301 382 -310 0 -8 -145 -177 -167 -195 -13 -10 -31 1 -107 64 -50 41 -153 123 -228 181 -76 58 -138 110 -138 116 1 6 18 38 38 71 21 33 51 81 67 108 17 26 33 47 36 47 4 0 56 -37 117 -82z m-8396 -139 c37 -52 68 -99 68 -105 0 -6 -42 -44 -92 -84 -51 -41 -155 -127 -230 -192 -125 -108 -158 -131 -158 -110 0 4 -36 47 -81 97 l-81 89 30 26 c17 14 77 66 134 116 160 140 318 266 331 261 6 -2 41 -46 79 -98z m8980 -353 c79 -74 183 -175 232 -224 100 -101 99 -97 21 -162 -22 -19 -59 -51 -82 -73 -22 -22 -46 -38 -52 -36 -7 3 -67 58 -134 125 -67 66 -167 161 -221 211 l-99 92 39 48 c56 69 135 153 145 153 5 0 73 -60 151 -134z m-9433 -176 c7 -11 -42 -67 -199 -228 l-208 -213 -48 42 c-27 23 -71 62 -97 86 l-48 45 48 55 c26 31 123 133 217 227 l170 170 78 -84 c44 -47 83 -92 87 -100z m9898 -302 c54 -61 151 -177 216 -257 l117 -146 -32 -28 c-67 -58 -190 -139 -198 -131 -4 5 -53 65 -107 134 -55 69 -143 175 -196 235 -53 61 -97 115 -97 121 0 7 17 27 38 44 20 18 63 57 95 86 32 30 60 54 62 54 2 0 48 -50 102 -112z m-10383 -154 l39 -34 -74 -87 c-41 -49 -115 -139 -164 -202 -50 -63 -99 -125 -111 -139 l-20 -25 -102 73 c-56 40 -102 77 -102 82 0 18 254 341 338 430 l35 37 61 -51 c33 -28 79 -66 100 -84z m10797 -361 c72 -95 289 -425 295 -449 4 -15 -5 -36 -28 -66 -18 -25 -53 -72 -78 -106 -25 -33 -50 -63 -57 -66 -6 -3 -54 64 -113 158 -56 89 -142 219 -191 289 -49 70 -89 131 -89 136 0 14 192 161 210 161 4 0 27 -26 51 -57z m-11264 -101 c51 -35 95 -67 97 -71 3 -4 -20 -43 -51 -87 -76 -106 -206 -307 -277 -426 -32 -54 -61 -98 -65 -98 -8 0 -142 174 -159 206 -10 18 3 43 97 190 157 246 242 365 255 357 6 -4 53 -36 103 -71z m11796 -754 c109 -206 170 -339 160 -348 -13 -11 -207 -98 -226 -102 -15 -2 -39 37 -120 197 -57 110 -124 236 -150 281 -26 45 -47 88 -47 96 0 12 21 18 98 25 53 6 120 11 148 12 l50 1 87 -162z m-12227 71 c60 -6 113 -14 117 -19 5 -4 -18 -57 -51 -116 -72 -132 -156 -299 -207 -414 -20 -47 -43 -91 -50 -99 -11 -12 -31 -5 -129 43 l-115 56 35 78 c48 104 223 454 236 470 13 15 26 15 164 1z m12469 -576 c51 -116 197 -494 193 -499 -2 -1 -59 -21 -128 -44 -106 -35 -126 -39 -135 -26 -6 8 -32 72 -59 143 -26 70 -51 137 -56 148 -45 101 -110 260 -110 270 0 10 215 112 241 114 4 1 28 -47 54 -106z m-12807 -90 c61 -26 112 -52 112 -59 0 -7 -29 -86 -64 -176 -35 -90 -83 -217 -105 -283 -23 -65 -43 -120 -45 -122 -3 -4 -248 65 -254 71 -4 5 88 267 143 406 76 190 84 210 93 210 4 0 58 -21 120 -47z m13062 -595 c23 -73 47 -153 55 -178 39 -125 86 -323 78 -330 -4 -4 -63 -19 -131 -32 -86 -17 -125 -22 -131 -14 -5 6 -14 36 -21 66 -26 111 -62 238 -106 377 -25 79 -44 148 -42 155 4 10 211 84 245 87 7 1 29 -54 53 -131z m-13270 -78 c41 -12 78 -25 82 -29 4 -3 -9 -58 -27 -121 -19 -63 -53 -191 -76 -285 -55 -230 -46 -213 -111 -204 -49 7 -200 39 -206 44 -3 2 83 349 109 440 11 39 29 100 40 137 l19 66 48 -13 c26 -7 81 -23 122 -35z m13458 -642 c36 -173 82 -440 82 -479 0 -25 -2 -26 -122 -42 -68 -10 -130 -17 -138 -17 -12 0 -19 27 -33 123 -10 67 -34 209 -54 314 -20 106 -35 195 -32 197 5 5 224 53 250 55 12 1 22 -31 47 -151z m-13693 -33 c140 -23 145 -24 145 -46 0 -11 -11 -79 -24 -152 -14 -73 -34 -201 -45 -286 -12 -85 -22 -156 -24 -157 -1 -2 -60 2 -131 9 -87 8 -130 15 -133 24 -8 20 72 549 92 611 5 15 10 15 120 -3z m13802 -645 c20 -183 33 -358 33 -444 l0 -84 -131 -56 c-73 -31 -133 -55 -134 -54 -1 2 -8 90 -14 196 -7 105 -18 254 -26 330 -21 194 -21 190 18 197 39 8 206 23 227 21 11 -1 18 -26 27 -106z m-13834 -50 c38 -5 71 -11 74 -14 3 -3 0 -65 -6 -138 -7 -73 -15 -233 -18 -355 -4 -151 -10 -223 -17 -223 -6 0 -69 28 -140 62 l-128 63 7 140 c11 234 33 468 45 475 12 7 72 4 183 -10z m13742 -677 c68 -32 126 -63 129 -70 5 -13 -9 -382 -20 -500 l-7 -76 -129 5 c-71 3 -131 8 -134 11 -3 2 0 67 5 143 6 77 11 230 11 342 0 130 4 202 10 202 6 0 66 -26 135 -57z m-13692 -295 c3 -117 11 -264 18 -327 9 -88 9 -115 -1 -121 -13 -8 -248 -35 -254 -29 -13 13 -52 542 -41 559 9 15 242 129 266 130 3 0 9 -96 12 -212z m13646 -412 c67 -8 127 -18 131 -23 14 -14 -66 -574 -91 -640 -7 -19 -13 -21 -46 -16 -68 10 -214 40 -219 46 -3 2 8 74 25 158 16 85 39 229 52 322 12 92 23 167 23 167 1 0 57 -7 125 -14z m-13609 -111 c0 -20 46 -318 66 -425 14 -74 28 -149 31 -165 l5 -31 -131 -25 -131 -25 -10 36 c-28 109 -103 587 -94 602 3 4 20 8 37 9 18 0 68 6 112 13 94 16 115 18 115 11z m13498 -611 c70 -14 129 -27 131 -30 10 -10 -147 -606 -165 -623 -6 -6 -69 10 -182 46 -65 20 -82 30 -79 42 41 134 120 418 138 494 13 53 24 97 26 97 2 0 61 -12 131 -26z m-13344 -216 c21 -84 58 -218 83 -298 25 -80 48 -153 50 -162 4 -13 -18 -24 -123 -57 -70 -22 -129 -40 -130 -38 -7 6 -101 322 -135 452 -44 169 -46 193 -21 202 15 6 201 48 227 52 6 0 27 -68 49 -151z m13161 -464 c60 -20 114 -40 119 -44 12 -12 -154 -462 -215 -581 l-19 -39 -50 20 c-40 16 -188 87 -197 94 -1 1 30 83 71 182 40 98 90 230 112 291 26 76 44 113 54 113 8 0 64 -16 125 -36z m-12945 -230 c31 -82 84 -214 118 -293 34 -80 60 -145 59 -146 -77 -38 -238 -107 -241 -104 -2 2 -32 67 -66 144 -85 195 -182 455 -176 471 3 8 13 14 23 14 10 0 61 15 113 34 52 19 99 33 105 32 5 -1 34 -70 65 -152z m12684 -436 c64 -29 116 -59 116 -65 0 -14 -231 -477 -252 -506 -13 -17 -22 -17 -146 -6 -72 7 -137 16 -144 20 -9 6 -1 29 30 86 24 43 93 178 154 301 61 122 114 222 118 222 5 0 60 -24 124 -52z m-12392 -231 c48 -94 117 -223 152 -285 40 -70 60 -115 53 -117 -7 -2 -70 -12 -140 -23 l-129 -18 -13 20 c-56 91 -245 458 -245 477 0 8 210 116 230 118 3 1 44 -77 92 -172z m12031 -467 c42 -60 77 -114 77 -120 0 -12 -149 -244 -247 -386 l-66 -94 -36 22 c-65 40 -169 118 -174 131 -2 6 47 88 109 182 63 93 141 216 174 273 33 56 66 102 73 102 7 0 47 -49 90 -110z m-11695 -123 c46 -73 124 -190 174 -260 49 -71 88 -129 87 -131 -25 -19 -161 -116 -183 -130 -15 -10 -31 -14 -35 -9 -42 47 -311 448 -311 462 0 5 37 59 82 122 70 97 83 110 92 95 6 -10 48 -77 94 -149z m11291 -439 c115 -78 120 -82 121 -95 0 -27 -383 -498 -406 -498 -17 0 -184 154 -184 170 0 7 39 60 86 117 47 56 94 112 103 123 9 11 45 58 81 105 80 106 101 130 113 130 5 0 44 -23 86 -52z m-10903 -110 c49 -62 129 -160 179 -218 49 -58 96 -113 103 -122 12 -14 2 -26 -80 -97 -51 -45 -97 -81 -103 -80 -12 0 -158 170 -295 342 -71 89 -99 132 -92 139 19 19 187 147 193 147 4 1 47 -50 95 -111z m10489 -462 l90 -84 -50 -54 c-152 -162 -411 -418 -420 -415 -17 6 -165 181 -163 193 5 21 423 444 438 444 8 0 56 -38 105 -84z m-9932 -162 c119 -119 217 -219 217 -222 0 -7 -151 -166 -166 -175 -9 -5 -70 48 -200 175 -234 229 -271 273 -253 294 15 19 171 144 179 144 3 0 103 -97 223 -216z m9386 -306 c32 -35 72 -80 90 -100 l32 -37 -128 -112 c-119 -104 -341 -286 -371 -303 -14 -8 -21 -1 -114 123 -32 42 -57 79 -55 82 1 3 70 60 152 127 83 66 191 157 240 201 50 44 91 80 93 80 1 1 29 -27 61 -61z m-8942 -101 c70 -60 163 -134 205 -165 42 -31 77 -64 77 -72 0 -8 -23 -44 -50 -80 -27 -36 -57 -77 -67 -92 -9 -16 -22 -28 -28 -28 -23 0 -475 367 -487 396 -3 5 33 52 80 102 l85 93 29 -23 c15 -13 85 -72 156 -131z m443 -342 c93 -67 288 -196 362 -239 26 -15 45 -33 42 -39 -7 -18 -202 -157 -220 -157 -20 0 -443 286 -444 300 0 3 34 51 76 108 48 64 80 100 87 95 7 -4 50 -34 97 -68z m7979 -53 c39 -52 71 -98 71 -103 0 -17 -418 -309 -442 -309 -20 0 -238 164 -228 172 3 3 59 39 126 81 67 42 181 120 255 172 73 52 136 92 140 87 3 -4 38 -49 78 -100z m-7410 -309 c64 -36 200 -109 303 -161 173 -87 186 -95 178 -115 -31 -81 -101 -217 -111 -217 -14 0 -317 156 -439 226 -47 28 -85 56 -85 64 2 96 20 270 28 270 5 0 62 -30 126 -67z m6785 -40 c4 -49 9 -116 11 -150 l5 -62 -102 -57 c-166 -94 -500 -256 -508 -247 -14 15 -102 223 -98 232 1 5 102 59 223 120 121 61 272 142 335 180 63 38 118 69 122 70 3 1 9 -38 12 -86z m-6077 -309 c85 -36 221 -90 301 -119 143 -52 147 -55 146 -82 -1 -22 -68 -219 -79 -231 -6 -7 -306 111 -582 228 -29 13 -53 28 -53 35 0 7 15 45 34 86 19 41 41 91 49 112 9 20 19 37 23 37 4 0 76 -30 161 -66z m5377 -115 c25 -59 46 -111 46 -117 0 -5 -26 -21 -57 -35 -129 -58 -542 -212 -549 -205 -10 11 -85 232 -81 241 3 7 67 34 143 61 77 27 207 77 289 112 83 34 153 59 156 56 4 -4 28 -55 53 -113z m-4634 -150 c58 -17 163 -46 234 -65 70 -18 130 -35 132 -37 5 -5 -46 -241 -56 -256 -12 -20 -630 156 -630 179 0 5 16 54 36 107 20 54 40 108 45 120 l8 21 63 -19 c35 -11 110 -33 168 -50z m3950 -39 c10 -30 29 -84 44 -119 21 -48 24 -66 15 -71 -29 -19 -558 -160 -596 -160 -15 0 -25 22 -52 121 -18 66 -30 123 -27 127 3 3 99 29 213 58 115 29 242 64 283 77 41 14 81 24 89 24 9 -1 22 -26 31 -57z m-3317 -114 c336 -64 687 -105 1025 -122 78 -3 142 -8 142 -10 0 -3 -30 -63 -66 -135 l-65 -131 -112 6 c-379 23 -784 76 -1102 144 -75 16 -80 19 -77 42 6 56 55 240 64 240 5 0 91 -15 191 -34z m2640 -18 c2 -13 18 -70 35 -128 17 -57 30 -105 28 -107 -11 -11 -431 -82 -582 -98 l-62 -7 -10 84 c-6 45 -13 106 -16 133 l-4 50 171 23 c95 13 226 33 292 46 66 13 125 24 131 25 7 0 14 -9 17 -21z m-659 -115 c13 -91 28 -225 24 -228 -9 -9 -259 -27 -465 -32 l-233 -6 -24 54 c-14 30 -38 90 -54 135 l-29 81 291 7 c160 5 325 11 366 15 41 4 85 8 97 9 17 2 22 -5 27 -35z"/>
<path d="M7358 14183 c-134 -5 -125 -23 11 -23 l109 0 -19 -87 c-46 -206 -69 -317 -66 -320 2 -2 18 45 36 104 90 299 94 308 124 311 16 2 29 -2 32 -10 2 -7 9 -332 14 -723 6 -390 14 -845 17 -1011 l7 -301 -28 -6 c-57 -10 -37 -83 -201 723 -58 283 -103 528 -101 545 2 16 -1 34 -8 40 -11 10 -145 657 -145 703 0 19 5 22 40 22 22 0 40 5 40 10 0 6 -16 10 -35 10 -94 0 -589 -61 -602 -74 -15 -15 12 -14 133 3 71 11 132 16 135 13 10 -10 186 -846 244 -1152 8 -41 48 -241 89 -445 42 -203 76 -380 76 -391 0 -19 -7 -22 -67 -28 -129 -12 -163 -18 -163 -27 0 -11 -12 -12 160 6 80 8 175 14 210 14 36 0 112 3 170 6 188 10 590 -21 800 -61 75 -14 103 -13 87 2 -3 3 -49 13 -101 22 l-96 16 0 101 c0 55 -3 520 -7 1034 l-6 933 39 -6 c183 -27 231 -30 213 -12 -9 9 -141 27 -311 41 -173 16 -647 26 -830 18z m606 -306 c4 -155 8 -617 9 -1027 l2 -745 -40 4 c-22 1 -41 4 -41 4 -10 13 -31 2015 -22 2039 4 9 18 13 46 10 l40 -4 6 -281z"/>
<path d="M7375 13710 c-4 -17 -5 -34 -2 -36 2 -3 7 10 11 27 8 42 0 50 -9 9z"/>
<path d="M4790 13551 c-270 -123 -629 -317 -630 -339 0 -9 18 -3 53 18 97 58 117 66 127 51 4 -8 32 -94 61 -192 29 -98 55 -177 56 -175 2 2 -6 47 -18 102 -33 154 -59 288 -59 300 0 9 69 49 75 42 1 -2 51 -91 110 -198 59 -107 156 -283 215 -390 138 -249 367 -666 412 -750 19 -36 82 -150 138 -254 98 -178 102 -190 85 -202 -10 -8 -25 -14 -32 -14 -12 0 -89 85 -355 395 -377 440 -471 552 -479 573 -5 12 -13 22 -18 22 -6 0 -89 93 -187 206 -249 291 -304 357 -304 370 0 5 18 20 40 33 22 12 40 29 40 36 0 15 -59 -20 -240 -144 -185 -126 -276 -201 -244 -201 3 0 37 25 76 55 38 30 75 55 82 54 6 0 29 -22 51 -48 22 -27 121 -142 220 -257 195 -226 374 -434 500 -582 71 -84 81 -101 102 -175 20 -71 26 -66 7 7 -11 44 11 30 79 -51 36 -43 109 -130 162 -193 136 -161 205 -248 205 -257 0 -5 -15 -17 -32 -28 -18 -10 -71 -45 -118 -78 -46 -33 -91 -60 -98 -61 -13 -1 -63 155 -132 412 -12 46 -25 81 -27 78 -3 -2 4 -47 16 -98 24 -107 81 -410 81 -431 0 -8 -36 -42 -80 -77 -71 -56 -93 -80 -74 -80 3 0 45 31 93 68 184 145 402 292 601 404 132 75 403 211 503 253 37 15 67 32 67 37 0 15 -19 9 -117 -37 -53 -25 -102 -45 -108 -45 -7 0 -62 93 -123 208 -255 480 -377 712 -512 972 -79 151 -183 349 -231 440 -54 103 -83 169 -78 176 5 6 39 24 76 39 71 29 111 55 83 55 -8 -1 -62 -23 -120 -49z"/>
<path d="M10500 13512 c0 -4 47 -30 105 -56 58 -27 108 -53 111 -58 6 -9 -27 -77 -96 -198 -99 -172 -336 -593 -533 -945 -234 -420 -358 -635 -366 -635 -4 0 -65 29 -135 65 -70 36 -129 65 -132 65 -2 0 -4 -4 -4 -10 0 -5 76 -48 168 -94 185 -93 323 -170 451 -253 46 -30 88 -52 95 -50 6 2 -32 32 -84 66 -52 35 -96 68 -98 75 -2 7 38 87 89 177 96 172 147 262 560 989 139 245 272 480 296 523 24 42 49 77 54 77 12 0 41 -18 132 -83 62 -44 89 -54 73 -29 -19 31 -301 197 -543 320 -120 61 -143 70 -143 54z"/>
<path d="M4461 12884 c0 -11 3 -14 6 -6 3 7 2 16 -1 19 -3 4 -6 -2 -5 -13z"/>
<path d="M6963 12449 c-15 -52 -50 -161 -78 -244 l-50 -150 -114 -22 c-63 -13 -116 -25 -119 -28 -15 -14 16 -12 139 10 73 14 160 27 192 31 31 4 57 11 57 17 0 6 -19 8 -50 4 -47 -6 -50 -5 -50 16 0 12 25 119 54 237 30 118 53 217 51 219 -2 2 -16 -39 -32 -90z"/>
<path d="M13020 11394 c0 -3 13 -23 28 -43 59 -75 110 -158 104 -168 -6 -8 -435 -270 -546 -333 -17 -9 -164 -97 -326 -195 -435 -262 -867 -515 -879 -515 -5 0 -42 47 -82 105 -63 91 -89 121 -89 99 0 -3 26 -42 58 -87 175 -247 343 -525 454 -753 39 -79 74 -144 79 -144 11 0 -1 30 -46 119 -19 40 -33 76 -30 81 3 4 58 39 123 76 64 37 248 144 407 237 494 290 552 324 845 495 157 91 303 176 325 189 22 12 46 23 52 23 7 0 38 -49 68 -110 30 -60 60 -110 65 -110 16 0 14 6 -56 139 -130 246 -209 388 -326 580 -134 223 -228 353 -228 315z m317 -500 c28 -48 28 -47 0 -60 -12 -6 -112 -65 -222 -131 -110 -66 -333 -198 -495 -293 -162 -95 -349 -206 -415 -245 -227 -136 -578 -338 -595 -342 -12 -3 -24 7 -39 32 -12 20 -19 40 -16 45 3 4 26 20 53 35 26 16 162 96 302 180 231 137 494 293 900 533 80 48 222 132 315 188 94 57 175 102 180 100 6 -1 20 -20 32 -42z"/>
<path d="M2027 11158 c-110 -171 -119 -186 -108 -192 5 -4 22 13 36 38 14 24 31 49 38 54 9 8 51 -26 155 -125 78 -74 142 -132 142 -129 0 3 -30 43 -67 89 -106 132 -143 181 -163 213 l-19 29 39 62 c22 34 35 65 30 68 -5 3 -42 -45 -83 -107z"/>
<path d="M1808 10798 c-115 -201 -238 -448 -238 -478 0 -30 20 1 59 90 30 70 48 100 60 100 14 0 691 -220 1096 -356 l140 -47 170 -195 c94 -107 184 -211 201 -231 17 -20 59 -67 92 -106 34 -38 62 -76 62 -83 0 -7 -21 -53 -46 -103 -25 -50 -43 -94 -39 -97 3 -3 9 -1 14 4 20 23 189 364 182 369 -5 2 -23 -22 -40 -55 -18 -33 -36 -60 -40 -60 -12 0 -499 497 -512 523 -10 18 -9 19 17 13 53 -13 649 -219 658 -227 10 -9 -4 -44 -49 -116 -17 -29 -22 -43 -13 -43 7 0 46 58 87 128 41 70 119 196 174 280 55 84 97 156 93 159 -8 8 -4 12 -65 -79 -29 -43 -57 -78 -63 -78 -25 0 -1245 413 -1260 427 -9 8 -21 12 -26 9 -8 -5 -591 185 -674 219 -25 10 -23 22 17 88 19 32 35 62 35 68 0 28 -24 -4 -92 -123z"/>
<path d="M12135 8278 c62 -545 67 -898 19 -1317 -14 -121 -13 -154 1 -139 3 2 10 53 17 111 l11 107 186 1 c102 0 265 2 361 4 96 3 474 7 839 11 l664 7 -7 -121 c-7 -126 6 -172 17 -59 22 219 30 625 18 887 -12 276 -34 557 -45 568 -14 13 -14 -9 -4 -106 6 -57 7 -106 3 -110 -7 -7 -887 -19 -1621 -21 l-421 -1 -13 120 c-7 66 -17 120 -23 120 -6 0 -7 -24 -2 -62z m2105 -501 c0 -36 -4 -54 -12 -54 -1156 -20 -2011 -30 -2021 -22 -4 3 -10 29 -14 57 l-6 52 154 1 c85 1 357 5 604 8 248 4 640 8 873 9 l422 2 0 -53z m5 -397 l0 -45 -425 -6 c-234 -3 -694 -7 -1022 -8 l-598 -1 0 44 0 44 133 4 c72 2 341 5 597 6 255 2 467 5 469 8 3 2 194 3 425 2 l421 -3 0 -45z"/>
<path d="M3077 8207 c-3 -8 -8 -39 -12 -70 -4 -31 -12 -63 -19 -71 -7 -10 -184 -52 -501 -121 -269 -58 -552 -120 -628 -136 -150 -33 -179 -36 -217 -24 -22 7 -23 6 -11 -9 7 -9 11 -16 9 -16 -3 0 -153 -32 -334 -70 -181 -39 -341 -73 -357 -76 -27 -6 -27 -5 -27 45 0 28 -4 51 -10 51 -30 0 4 -948 36 -979 13 -13 14 18 4 105 -6 54 -7 101 -3 105 7 6 305 19 1403 59 140 5 340 10 445 12 l190 3 12 -95 c22 -168 24 -180 35 -180 7 0 8 16 4 48 -28 195 -55 532 -56 695 0 26 -4 47 -10 47 -5 0 -10 -25 -10 -56 l0 -56 -67 7 c-38 4 -118 20 -180 36 -62 16 -116 29 -120 28 -4 0 73 -27 172 -59 175 -58 205 -74 205 -111 0 -14 -14 -18 -82 -23 -130 -10 -1560 -55 -1813 -57 l-150 -1 -3 35 -3 35 113 26 c438 101 1199 258 1217 251 8 -3 18 -1 21 6 4 6 27 15 51 20 24 4 174 35 333 69 159 33 296 60 304 60 12 0 13 -13 8 -80 -5 -52 -4 -80 3 -80 14 0 19 42 25 205 5 124 26 330 42 408 6 27 -9 38 -19 14z"/>
<path d="M986 8148 c-13 -139 -27 -390 -22 -396 14 -13 21 16 24 108 3 74 8 100 18 100 7 0 102 -23 211 -51 253 -66 280 -70 117 -16 -141 47 -249 90 -302 121 l-33 19 7 88 c4 60 3 89 -4 89 -6 0 -13 -28 -16 -62z"/>
<path d="M1515 7830 c11 -5 27 -9 35 -9 9 0 8 4 -5 9 -11 5 -27 9 -35 9 -9 0 -8 -4 5 -9z"/>
<path d="M1585 7810 c11 -5 27 -9 35 -9 9 0 8 4 -5 9 -11 5 -27 9 -35 9 -9 0 -8 -4 5 -9z"/>
<path d="M2618 7493 c7 -3 16 -2 19 1 4 3 -2 6 -13 5 -11 0 -14 -3 -6 -6z"/>
<path d="M3230 6168 c0 -2 15 -50 34 -106 l35 -102 -247 -146 c-136 -81 -272 -162 -302 -179 -632 -376 -1223 -716 -1239 -713 -12 3 -100 215 -101 245 0 14 -19 27 -27 20 -17 -17 179 -469 307 -708 148 -276 397 -679 420 -679 15 0 13 5 -30 66 -22 32 -40 63 -40 69 0 7 30 26 68 43 37 16 189 87 337 157 149 70 335 156 415 191 80 35 153 69 162 74 10 6 26 10 35 10 20 -1 20 0 -234 -225 -87 -77 -196 -174 -243 -216 -138 -124 -354 -309 -361 -309 -4 0 -20 20 -36 45 -28 44 -43 56 -43 33 0 -22 237 -336 338 -448 27 -30 53 -52 57 -48 4 4 -21 39 -56 78 -35 39 -67 76 -71 84 -5 9 29 45 105 112 61 54 141 126 177 159 86 77 149 133 525 465 603 531 728 644 719 647 -6 2 -89 -31 -185 -73 -172 -75 -454 -192 -1309 -546 l-435 -179 -17 22 c-10 11 -18 25 -18 29 0 14 0 14 1170 692 151 88 316 184 365 212 120 71 221 126 228 126 3 0 33 -40 67 -89 63 -92 86 -118 96 -108 4 3 -9 25 -28 49 -192 238 -442 728 -578 1132 -20 61 -42 112 -48 114 -7 2 -12 2 -12 0z m190 -504 c6 -14 10 -27 10 -29 0 -4 -205 -127 -635 -380 -110 -65 -324 -191 -475 -280 -399 -235 -579 -339 -626 -363 l-41 -21 -12 26 c-10 21 -9 29 1 38 7 7 110 70 228 140 118 70 274 162 345 205 72 43 173 102 225 132 52 31 214 126 360 213 406 243 584 345 598 345 7 0 17 -12 22 -26z m155 -314 c8 -16 15 -31 15 -34 0 -11 -1745 -1036 -1764 -1036 -7 0 -36 55 -36 69 0 5 19 20 43 33 63 37 806 471 927 543 118 69 258 152 530 310 102 60 199 116 215 126 41 25 52 24 70 -11z"/>
<path d="M11953 6088 c-34 -103 -74 -211 -88 -243 -8 -16 -27 -61 -43 -100 -177 -415 -404 -794 -688 -1147 -25 -32 -41 -58 -35 -58 9 0 60 56 118 128 l18 22 345 -208 c410 -247 735 -444 1075 -652 138 -84 267 -162 287 -174 21 -12 38 -26 38 -33 0 -10 -85 -124 -138 -185 -13 -15 -13 -18 -1 -18 33 0 291 362 471 660 171 284 349 641 468 941 44 108 44 109 32 109 -5 0 -30 -53 -55 -117 -26 -65 -51 -124 -56 -132 -10 -16 -35 -3 -456 244 -148 87 -351 205 -450 263 -99 57 -238 139 -310 182 -442 263 -575 343 -575 346 0 2 18 51 40 109 41 109 46 125 32 125 -4 0 -17 -28 -29 -62z m-64 -488 c36 -20 158 -90 271 -155 113 -65 331 -190 485 -278 524 -300 935 -542 935 -552 0 -11 -34 -75 -41 -75 -10 0 -122 63 -464 260 -165 95 -403 233 -530 305 -126 73 -284 164 -350 202 -66 38 -187 109 -270 157 -82 48 -154 91 -158 95 -4 5 -1 26 8 49 19 46 16 47 114 -8z m188 -520 c230 -132 426 -240 436 -240 9 0 17 -4 17 -9 0 -5 89 -60 198 -122 291 -166 676 -390 686 -399 4 -5 -4 -29 -19 -54 l-27 -46 -31 17 c-17 9 -95 53 -172 98 -77 45 -221 128 -320 185 -99 57 -232 133 -295 170 -63 37 -191 111 -285 165 -93 54 -260 151 -370 215 -110 64 -221 129 -247 144 -27 15 -48 33 -48 41 0 21 34 75 47 75 6 0 200 -108 430 -240z m-212 -320 c193 -114 458 -270 590 -347 132 -77 305 -180 385 -228 80 -48 161 -96 180 -107 106 -60 190 -114 190 -123 0 -6 -11 -27 -25 -48 -31 -45 14 -65 -375 166 -162 97 -311 185 -330 196 -19 11 -132 78 -250 149 -118 70 -350 208 -515 307 -165 98 -304 182 -309 186 -5 5 2 25 18 49 l26 40 33 -16 c17 -10 190 -110 382 -224z"/>
<path d="M4620 4069 c0 -13 41 -54 119 -120 l55 -47 -99 -173 c-54 -96 -133 -232 -176 -304 -42 -71 -163 -281 -269 -465 -246 -427 -467 -804 -487 -829 -6 -8 -48 20 -143 94 -52 41 -98 75 -102 75 -26 0 8 -31 131 -122 233 -173 384 -274 606 -404 208 -123 255 -147 255 -132 0 8 -25 26 -55 41 -30 15 -55 31 -55 36 0 15 178 256 349 474 84 107 52 78 -50 -45 -235 -284 -331 -398 -340 -404 -12 -7 -59 22 -59 36 0 5 20 42 44 82 23 40 107 183 186 318 161 276 782 1315 803 1343 12 18 19 16 127 -42 62 -34 115 -61 117 -61 2 0 3 4 3 10 0 5 -26 23 -57 39 -286 144 -679 405 -843 560 -59 56 -60 56 -60 40z m466 -374 c7 -18 -19 -63 -561 -980 -404 -683 -466 -785 -478 -785 -16 0 -57 28 -57 39 0 5 57 107 127 227 69 121 149 260 178 309 64 111 170 293 282 484 218 370 257 436 348 589 l96 162 31 -17 c17 -10 32 -23 34 -28z"/>
<path d="M10044 3418 c22 -59 216 -543 354 -883 34 -82 125 -310 202 -505 129 -324 140 -355 124 -367 -9 -7 -45 -27 -80 -45 -35 -18 -64 -37 -64 -42 0 -12 22 -2 175 81 179 98 196 108 188 116 -3 4 -39 -11 -78 -33 -40 -22 -77 -40 -83 -40 -13 0 -119 238 -368 830 -78 184 -86 213 -57 189 9 -8 145 -158 302 -333 412 -461 441 -494 441 -503 0 -4 -27 -24 -60 -42 -55 -32 -83 -62 -43 -47 52 20 434 267 503 325 67 57 21 41 -58 -19 -44 -34 -87 -60 -95 -58 -15 3 -123 121 -685 743 -124 138 -265 293 -313 345 -47 52 -137 151 -200 220 -62 69 -117 127 -121 128 -5 2 2 -25 16 -60z"/>
<path d="M5609 3288 c-36 -46 -155 -197 -265 -336 -109 -138 -214 -270 -231 -293 -18 -22 -33 -50 -33 -61 0 -21 -9 -45 -159 -448 -149 -399 -219 -574 -230 -578 -6 -2 -36 11 -66 28 -52 30 -75 34 -61 12 9 -15 362 -187 484 -236 119 -48 132 -52 132 -38 0 5 -49 28 -110 51 -61 23 -110 48 -110 55 0 16 254 693 440 1171 147 380 281 738 278 747 -2 5 -33 -28 -69 -74z"/>
<path d="M7140 2972 c0 -5 18 -12 41 -15 22 -3 43 -7 45 -10 3 -3 0 -164 -6 -358 -6 -195 -17 -586 -25 -869 -8 -283 -18 -582 -21 -664 l-7 -148 -96 6 c-53 4 -108 9 -123 12 -34 7 -38 -13 -5 -21 104 -23 777 -47 777 -27 0 8 -25 12 -76 12 l-77 0 6 72 c8 85 30 312 52 518 35 343 16 263 -65 -275 -22 -148 -43 -280 -45 -293 -6 -25 -42 -31 -51 -7 -8 20 8 569 52 1790 4 94 9 185 13 204 l7 34 122 -2 c82 -2 122 1 122 8 0 6 -20 11 -47 11 -52 0 -365 16 -505 25 -53 4 -88 3 -88 -3z"/>
<path d="M7831 2954 c-1 -14 -108 -700 -121 -779 -13 -77 -13 -86 2 -82 8 1 42 -176 109 -573 54 -316 98 -587 98 -602 l1 -28 -80 0 c-47 0 -80 -4 -80 -10 0 -13 155 -13 352 0 156 11 367 36 376 45 14 13 -14 13 -135 -3 -73 -9 -134 -14 -137 -11 -9 9 -80 390 -201 1080 -94 537 -181 995 -184 963z"/>
<path d="M7652 1780 c0 -14 2 -19 5 -12 2 6 2 18 0 25 -3 6 -5 1 -5 -13z"/>
<path d="M430 6735 c0 -8 5 -15 10 -15 6 0 10 7 10 15 0 8 -4 15 -10 15 -5 0 -10 -7 -10 -15z"/>
</g>
</svg>